<?xml version="1.0" encoding="UTF-8" standalone="no"?>
<!DOCTYPE svg PUBLIC "-//W3C//DTD SVG 1.1//EN" "http://www.w3.org/Graphics/SVG/1.1/DTD/svg11.dtd">
<svg width="100%" height="100%" viewBox="0 0 645 585" version="1.1" xmlns="http://www.w3.org/2000/svg" xmlns:xlink="http://www.w3.org/1999/xlink" xml:space="preserve" style="fill-rule:evenodd;clip-rule:evenodd;stroke-linejoin:round;stroke-miterlimit:1.41421;">
    <g id="layer1">
        <path id="path2417" d="M297.297,550.868C283.522,535.432 249.127,505.339 220.863,483.994C137.119,420.752 125.721,411.6 91.719,380.291C29.035,322.571 2.414,264.581 2.505,185.951C2.549,147.567 5.166,132.779 15.915,110.154C34.151,71.768 61.015,43.245 95.36,25.799C119.685,13.444 131.683,7.954 172.304,7.73C214.798,7.495 223.743,12.449 248.739,26.181C279.164,42.896 310.479,78.617 316.952,103.992L320.951,119.664L330.81,98.08C386.526,-23.893 564.409,-22.068 626.312,101.112C645.95,140.188 648.106,223.625 630.693,270.624C607.977,331.934 565.313,378.675 466.686,450.301C402.005,497.275 328.801,568.347 323.706,578.329C317.79,589.917 323.423,580.145 297.297,550.868Z" style="fill-rule:nonzero;"/>
    </g>
</svg>
